<svg width="1920" height="1080" viewBox="0 0 1920 1080" fill="none" xmlns="http://www.w3.org/2000/svg">
<g clip-path="url(#clip0_1_580)">
<rect width="1920" height="1080" fill="white"/>
<g opacity="0.2">
<path d="M276 12.0001L276 1092" stroke="#2D2DF1"/>
<path d="M300 12.0001L300 1092" stroke="#2D2DF1"/>
<path d="M324 12.0001L324 1092" stroke="#2D2DF1"/>
<path d="M348 12.0001L348 1092" stroke="#2D2DF1"/>
<path d="M372 12.0001L372 1092" stroke="#2D2DF1"/>
<path d="M396 12.0001L396 1092" stroke="#2D2DF1"/>
<path d="M420 12.0001L420.001 1092" stroke="#2D2DF1"/>
<path d="M444 12.0001L444.001 1092" stroke="#2D2DF1"/>
<path d="M468 12.0001L468.001 1092" stroke="#2D2DF1"/>
<path d="M492 12.0001L492.001 1092" stroke="#2D2DF1"/>
<path d="M516 12.0001L516.001 1092" stroke="#2D2DF1"/>
<path d="M540 12.0001L540.001 1092" stroke="#2D2DF1"/>
<path d="M564 12.0001L564.001 1092" stroke="#2D2DF1"/>
<path d="M588 12.0001L588.001 1092" stroke="#2D2DF1"/>
<path d="M612 12.0001L612.001 1092" stroke="#2D2DF1"/>
<path d="M636.001 12.0001L636.001 1092" stroke="#2D2DF1"/>
<path d="M660.001 12.0001L660.001 1092" stroke="#2D2DF1"/>
<path d="M684.001 12.0001L684.001 1092" stroke="#2D2DF1"/>
<path d="M708.001 12.0001L708.001 1092" stroke="#2D2DF1"/>
<path d="M732.001 12.0001L732.001 1092" stroke="#2D2DF1"/>
<path d="M756.001 12.0001L756.001 1092" stroke="#2D2DF1"/>
<path d="M780.001 12.0001L780.001 1092" stroke="#2D2DF1"/>
<path d="M804.001 12.0001L804.001 1092" stroke="#2D2DF1"/>
<path d="M828.001 12.0001L828.001 1092" stroke="#2D2DF1"/>
<path d="M852.001 12.0001L852.002 1092" stroke="#2D2DF1"/>
<path d="M876.001 12.0001L876.002 1092" stroke="#2D2DF1"/>
<path d="M900.001 12.0001L900.002 1092" stroke="#2D2DF1"/>
<path d="M924.001 12.0001L924.002 1092" stroke="#2D2DF1"/>
<path d="M948.001 12.0001L948.002 1092" stroke="#2D2DF1"/>
<path d="M972.001 12.0001L972.002 1092" stroke="#2D2DF1"/>
<path d="M996.001 12.0001L996.002 1092" stroke="#2D2DF1"/>
<path d="M1020 12.0001L1020 1092" stroke="#2D2DF1"/>
<path d="M1044 12.0001L1044 1092" stroke="#2D2DF1"/>
<path d="M1068 12.0001L1068 1092" stroke="#2D2DF1"/>
<path d="M1092 12.0001L1092 1092" stroke="#2D2DF1"/>
<path d="M1116 12.0001L1116 1092" stroke="#2D2DF1"/>
<path d="M1140 12.0001L1140 1092" stroke="#2D2DF1"/>
<path d="M1164 12.0001L1164 1092" stroke="#2D2DF1"/>
<path d="M1188 12.0001L1188 1092" stroke="#2D2DF1"/>
<path d="M1212 12.0001L1212 1092" stroke="#2D2DF1"/>
<path d="M1236 12.0001L1236 1092" stroke="#2D2DF1"/>
<path d="M1260 12.0001L1260 1092" stroke="#2D2DF1"/>
<path d="M1284 12.0001L1284 1092" stroke="#2D2DF1"/>
<path d="M1308 12.0001L1308 1092" stroke="#2D2DF1"/>
<path d="M1332 12.0001L1332 1092" stroke="#2D2DF1"/>
<path d="M1356 12.0001L1356 1092" stroke="#2D2DF1"/>
<path d="M1380 12.0001L1380 1092" stroke="#2D2DF1"/>
<path d="M1404 12.0001L1404 1092" stroke="#2D2DF1"/>
<path d="M1428 12.0001L1428 1092" stroke="#2D2DF1"/>
<path d="M1452 12.0001L1452 1092" stroke="#2D2DF1"/>
<path d="M1476 12.0001L1476 1092" stroke="#2D2DF1"/>
<path d="M1500 12.0001L1500 1092" stroke="#2D2DF1"/>
<path d="M1524 12.0001L1524 1092" stroke="#2D2DF1"/>
<path d="M1548 12.0001L1548 1092" stroke="#2D2DF1"/>
<path d="M1572 12.0001L1572 1092" stroke="#2D2DF1"/>
<path d="M1596 12.0001L1596 1092" stroke="#2D2DF1"/>
<path d="M1620 12.0001L1620 1092" stroke="#2D2DF1"/>
<path d="M1644 12.0001L1644 1092" stroke="#2D2DF1"/>
<path d="M1656 12.0001L275 12.0001" stroke="#2D2DF1"/>
<path d="M1656 36.0001L275 36.0001" stroke="#2D2DF1"/>
<path d="M1656 60.0002L275 60.0002" stroke="#2D2DF1"/>
<path d="M1656 84.0002L275 84.0002" stroke="#2D2DF1"/>
<path d="M1656 108L275 108" stroke="#2D2DF1"/>
<path d="M1656 132L275 132" stroke="#2D2DF1"/>
<path d="M1656 156L275 156" stroke="#2D2DF1"/>
<path d="M1656 180L275 180" stroke="#2D2DF1"/>
<path d="M1656 204.001L275 204.001" stroke="#2D2DF1"/>
<path d="M1656 228.001L275 228.001" stroke="#2D2DF1"/>
<path d="M1656 252.001L275 252.001" stroke="#2D2DF1"/>
<path d="M1656 276.001L275 276.001" stroke="#2D2DF1"/>
<path d="M1656 300.001L275 300.001" stroke="#2D2DF1"/>
<path d="M1656 324.001L275 324.001" stroke="#2D2DF1"/>
<path d="M1656 348.001L275 348.001" stroke="#2D2DF1"/>
<path d="M1656 372.001L275 372.001" stroke="#2D2DF1"/>
<path d="M1656 396.001L275 396.001" stroke="#2D2DF1"/>
<path d="M1656 420.001L275 420.001" stroke="#2D2DF1"/>
<path d="M1656 444.001L275 444.001" stroke="#2D2DF1"/>
<path d="M1656 468.001L275 468.001" stroke="#2D2DF1"/>
<path d="M1656 492.001L275 492.001" stroke="#2D2DF1"/>
<path d="M1656 516.001L275 516.001" stroke="#2D2DF1"/>
<path d="M1656 540.001L275 540.001" stroke="#2D2DF1"/>
<path d="M1656 564.001L275 564.001" stroke="#2D2DF1"/>
<path d="M1656 588.001L275 588.001" stroke="#2D2DF1"/>
<path d="M1656 612.002L275 612.002" stroke="#2D2DF1"/>
<path d="M1656 636.002L275 636.002" stroke="#2D2DF1"/>
<path d="M1656 660.002L275 660.002" stroke="#2D2DF1"/>
<path d="M1656 684.002L275 684.002" stroke="#2D2DF1"/>
<path d="M1656 708.002L275 708.002" stroke="#2D2DF1"/>
<path d="M1656 732.002L275 732.002" stroke="#2D2DF1"/>
<path d="M1656 756.002L275 756.002" stroke="#2D2DF1"/>
<path d="M1656 780.002L275 780.002" stroke="#2D2DF1"/>
<path d="M1656 804.002L275 804.002" stroke="#2D2DF1"/>
<path d="M1656 828.002L275 828.002" stroke="#2D2DF1"/>
<path d="M1656 852.002L275 852.002" stroke="#2D2DF1"/>
<path d="M1656 876.002L275 876.002" stroke="#2D2DF1"/>
<path d="M1656 900.002L275 900.002" stroke="#2D2DF1"/>
<path d="M1656 924.002L275 924.002" stroke="#2D2DF1"/>
<path d="M1656 948.002L275 948.002" stroke="#2D2DF1"/>
<path d="M1656 972.002L275 972.002" stroke="#2D2DF1"/>
<path d="M1656 996.003L275 996.003" stroke="#2D2DF1"/>
<path d="M1656 1020L275 1020" stroke="#2D2DF1"/>
<path d="M1656 1044L275 1044" stroke="#2D2DF1"/>
<path d="M1656 1068L275 1068" stroke="#2D2DF1"/>
</g>
<path opacity="0.5" d="M924 680C924 668.954 932.954 660 944 660H1552C1563.05 660 1572 668.954 1572 680V736C1572 747.046 1563.05 756 1552 756H944C932.954 756 924 747.046 924 736V680Z" fill="#17CAC6"/>
<path opacity="0.5" d="M944.041 323.959C932.979 323.982 924 315.021 924 303.959L924 214.39C924 205.322 930.101 197.388 938.865 195.06L1006.35 177.132C1011.49 175.767 1016.96 176.503 1021.55 179.178L1130.06 242.367C1136.22 245.949 1140 252.532 1140 259.65L1140 303.598C1140 314.627 1131.07 323.575 1120.04 323.598L944.041 323.959Z" fill="#17CAC6"/>
<path opacity="0.5" d="M1164 368C1164 356.954 1172.95 348 1184 348H1432C1443.05 348 1452 356.954 1452 368V616C1452 627.046 1443.05 636 1432 636H1184C1172.95 636 1164 627.046 1164 616V368Z" fill="#17CAC6"/>
<rect opacity="0.5" x="1140" y="348" width="120" height="216" rx="20" transform="rotate(90 1140 348)" fill="#17CAC6"/>
<rect opacity="0.5" x="492" y="348" width="408" height="408" rx="20" fill="#17CAC6"/>
<rect opacity="0.5" x="492" y="324" width="72" height="408" rx="20" transform="rotate(-90 492 324)" fill="#17CAC6"/>
<path opacity="0.5" d="M348 368C348 356.954 356.954 348 368 348H448C459.046 348 468 356.954 468 368V448C468 459.046 459.046 468 448 468H368C356.954 468 348 459.046 348 448V368Z" fill="#17CAC6"/>
<path opacity="0.5" d="M924 800C924 788.954 932.954 780 944 780H1120C1131.05 780 1140 788.954 1140 800V856C1140 867.046 1131.05 876 1120 876H944C932.954 876 924 867.046 924 856V800Z" fill="#17CAC6"/>
<path opacity="0.5" d="M804 800C804 788.954 812.954 780 824 780H880C891.046 780 900 788.954 900 800V856C900 867.046 891.046 876 880 876H824C812.954 876 804 867.046 804 856V800Z" fill="#17CAC6"/>
<g opacity="0.5">
<rect x="1308" y="204" width="120" height="120" rx="20" fill="#17CAC6"/>
</g>
<path opacity="0.5" d="M1476 528C1476 516.954 1484.95 508 1496 508H1500.8C1507.96 508 1514.57 511.824 1518.14 518.027L1568.76 606.027C1576.43 619.361 1566.8 636 1551.42 636H1496C1484.95 636 1476 627.046 1476 616V528Z" fill="#17CAC6"/>
</g>
<defs>
<clipPath id="clip0_1_580">
<rect width="1920" height="1080" fill="white"/>
</clipPath>
</defs>
</svg>
