<svg width="1920" height="1080" viewBox="0 0 1920 1080" fill="none" xmlns="http://www.w3.org/2000/svg">
<rect width="1920" height="1080" fill="white"/>
<g clip-path="url(#clip0_1_217)">
<rect width="1368" height="1055" transform="translate(276 12)" fill="white"/>
<g clip-path="url(#clip1_1_217)">
<path opacity="0.5" d="M1007.66 972.673L998.553 988.32L998.056 988.031L993.671 995.568H984.054V996.143H964.158V995.568H944.262V996.143H924.366V995.568H904.47V996.143H884.574V995.568H864.678V996.143H844.783V995.568H835.832L839.874 988.589L839.377 988.301L848.461 972.616L848.958 972.904L858.042 957.219L857.545 956.931L866.629 941.246L867.126 941.534L876.21 925.849L875.713 925.561L884.797 909.876L885.294 910.164L894.378 894.479L893.881 894.191L902.965 878.506L903.462 878.794L912.546 863.109L912.049 862.821L921.133 847.137L921.63 847.425L930.714 831.74L930.217 831.452L939.301 815.767L939.798 816.055L948.882 800.37L948.384 800.082L957.468 784.397L957.966 784.685L967.05 769L966.552 768.712L975.636 753.027L976.134 753.315L985.218 737.63L984.72 737.342L993.804 721.657L994.302 721.945L1003.39 706.26L1002.89 705.972L1011.97 690.287L1012.47 690.575L1021.55 674.891L1021.06 674.603L1030.14 658.918L1030.64 659.206L1039.72 643.521L1039.22 643.233L1048.31 627.548L1048.81 627.836L1057.89 612.151L1057.39 611.863L1066.48 596.178L1066.97 596.466L1076.06 580.781L1075.56 580.493L1084.64 564.808L1085.14 565.096L1094.23 549.411L1093.73 549.123L1102.81 533.438L1103.31 533.726L1112.39 518.042L1111.9 517.754L1120.98 502.069L1121.48 502.357L1130.56 486.672L1130.06 486.384L1139.15 470.699L1139.65 470.987L1143.49 464.343L1145.66 472.458L1146.22 472.31L1151.28 491.216L1150.72 491.365L1155.78 510.272L1156.33 510.123L1161.39 529.03L1160.84 529.178L1165.89 548.085L1166.45 547.937L1171.5 566.843L1170.95 566.992L1176.01 585.898L1176.56 585.75L1181.62 604.657L1181.06 604.805L1186.12 623.712L1186.68 623.563L1191.73 642.47L1191.18 642.619L1193.64 651.841L1189.21 659.458L1189.71 659.747L1180.61 675.393L1180.11 675.104L1171.01 690.75L1171.5 691.039L1162.4 706.686L1161.91 706.397L1152.8 722.043L1153.3 722.332L1144.2 737.978L1143.7 737.689L1134.6 753.336L1135.09 753.625L1125.99 769.271L1125.49 768.982L1116.39 784.628L1116.89 784.917L1107.79 800.564L1107.29 800.275L1098.19 815.921L1098.68 816.21L1089.58 831.856L1089.08 831.567L1079.98 847.214L1080.48 847.503L1071.37 863.149L1070.88 862.86L1061.78 878.506L1062.27 878.795L1053.17 894.442L1052.67 894.153L1043.57 909.799L1044.07 910.088L1034.96 925.734L1034.47 925.445L1025.36 941.092L1025.86 941.381L1016.76 957.027L1016.26 956.738L1007.16 972.384L1007.66 972.673Z" fill="#17CAC6" stroke="#2D2DF1" stroke-width="1.14934" stroke-dasharray="18.43 18.43"/>
<path opacity="0.5" d="M691.423 971.555L682.384 987.187L681.886 986.899L677.532 994.428H667.804V995.003H647.684V994.428H627.565V995.003H607.445V994.428H587.325V995.003H567.206V994.428H547.086V995.003H526.966V994.428H517.9L521.931 987.428L521.433 987.141L530.486 971.417L530.984 971.704L540.036 955.979L539.539 955.693L548.591 939.968L549.089 940.255L558.142 924.531L557.644 924.244L566.697 908.52L567.195 908.807L576.248 893.082L575.75 892.796L584.803 877.071L585.301 877.358L594.354 861.634L593.856 861.347L602.909 845.623L603.407 845.91L612.46 830.186L611.962 829.899L621.015 814.175L621.513 814.461L630.566 798.737L630.068 798.45L639.12 782.726L639.618 783.013L648.671 767.289L648.173 767.002L657.226 751.278L657.724 751.564L666.777 735.84L666.279 735.553L675.332 719.829L675.83 720.116L684.883 704.392L684.385 704.105L693.438 688.381L693.936 688.668L702.989 672.943L702.491 672.657L711.544 656.932L712.042 657.219L721.095 641.495L720.597 641.208L729.649 625.484L730.147 625.771L739.2 610.046L738.702 609.76L747.755 594.035L748.253 594.322L757.306 578.598L756.808 578.311L765.861 562.587L766.359 562.874L775.412 547.149L774.914 546.863L783.967 531.139L784.465 531.425L793.518 515.701L793.02 515.414L802.073 499.69L802.571 499.977L811.624 484.253L811.125 483.966L820.178 468.242L820.676 468.529L829.729 452.804L829.231 452.518L838.284 436.793L838.782 437.08L847.835 421.356L847.337 421.069L856.39 405.345L856.888 405.632L865.941 389.907L865.443 389.621L874.496 373.897L874.994 374.183L884.047 358.459L883.549 358.172L892.601 342.448L893.1 342.735L902.152 327.011L901.654 326.724L910.707 311L911.205 311.286L920.258 295.562L919.76 295.276L928.813 279.551L929.311 279.838L938.364 264.114L937.866 263.827L946.919 248.103L947.417 248.39L956.47 232.665L955.972 232.379L965.025 216.654L965.523 216.941L974.576 201.217L974.078 200.93L983.13 185.206L983.628 185.493L992.681 169.769L992.183 169.482L1001.24 153.758L1001.73 154.044L1010.79 138.32L1010.29 138.033L1019.34 122.309L1019.84 122.596L1028.89 106.872L1028.39 106.585L1037.45 90.8608L1037.95 91.1475L1041.78 84.4896L1044.01 92.7939L1044.56 92.6451L1049.73 111.938L1049.18 112.087L1054.35 131.379L1054.9 131.231L1060.08 150.523L1059.52 150.672L1064.69 169.965L1065.25 169.816L1070.42 189.109L1069.87 189.258L1075.04 208.551L1075.59 208.402L1080.76 227.695L1080.21 227.843L1085.38 247.136L1085.94 246.987L1091.11 266.28L1090.55 266.429L1093.08 275.845L1088.68 283.455L1089.17 283.743L1080.13 299.375L1079.64 299.087L1070.6 314.719L1071.1 315.007L1062.06 330.639L1061.56 330.351L1052.52 345.983L1053.02 346.271L1043.98 361.903L1043.48 361.615L1034.44 377.247L1034.94 377.535L1025.9 393.167L1025.4 392.88L1016.36 408.512L1016.86 408.799L1007.82 424.431L1007.32 424.144L998.279 439.776L998.777 440.064L989.737 455.696L989.239 455.408L980.2 471.04L980.697 471.328L971.657 486.96L971.16 486.672L962.12 502.304L962.618 502.592L953.578 518.224L953.08 517.936L944.041 533.568L944.538 533.856L935.498 549.488L935.001 549.2L925.961 564.832L926.458 565.12L917.419 580.752L916.921 580.465L907.881 596.097L908.379 596.384L899.339 612.017L898.841 611.729L889.802 627.361L890.299 627.649L881.259 643.281L880.762 642.993L871.722 658.625L872.22 658.913L863.18 674.545L862.682 674.257L853.642 689.889L854.14 690.177L845.1 705.809L844.603 705.521L835.563 721.154L836.06 721.441L827.021 737.073L826.523 736.786L817.483 752.418L817.981 752.705L808.941 768.338L808.443 768.05L799.404 783.682L799.901 783.97L790.861 799.602L790.364 799.314L781.324 814.946L781.822 815.234L772.782 830.866L772.284 830.578L763.244 846.21L763.742 846.498L754.702 862.13L754.205 861.842L745.165 877.475L745.662 877.762L736.623 893.394L736.125 893.107L727.085 908.739L727.583 909.026L718.543 924.658L718.045 924.371L709.006 940.003L709.503 940.291L700.463 955.923L699.966 955.635L690.926 971.267L691.423 971.555Z" fill="#17CAC6" stroke="#2D2DF1" stroke-width="1.14934" stroke-dasharray="18.43 18.43"/>
<path opacity="0.5" d="M1277.77 968.625L1282.47 986.21L1283.03 986.062L1285.27 994.428H1293.83V995.003H1311.83V994.428H1329.84V995.003H1347.85V994.428H1365.85V995.003H1383.86V994.428H1401.86V995.003H1419.87V994.428H1428.12L1425.96 986.36L1426.51 986.211L1421.79 968.626L1421.24 968.775L1416.52 951.189L1417.07 951.041L1412.36 933.455L1411.8 933.604L1407.08 916.019L1407.64 915.87L1402.92 898.285L1402.36 898.434L1397.65 880.849L1398.2 880.7L1393.48 863.115L1392.93 863.264L1388.21 845.678L1388.76 845.53L1384.05 827.944L1383.49 828.093L1378.77 810.508L1379.33 810.359L1374.61 792.774L1374.05 792.923L1369.33 775.338L1369.89 775.189L1365.17 757.604L1364.62 757.753L1359.9 740.167L1360.45 740.018L1355.73 722.433L1355.18 722.582L1350.46 704.997L1351.02 704.848L1346.3 687.263L1345.74 687.412L1341.02 669.827L1341.58 669.678L1336.86 652.093L1336.3 652.242L1331.59 634.656L1332.14 634.507L1327.42 616.922L1326.87 617.071L1322.15 599.486L1322.7 599.337L1317.99 581.752L1317.43 581.901L1312.71 564.316L1313.27 564.167L1308.55 546.582L1307.99 546.73L1303.28 529.145L1303.83 528.996L1299.11 511.411L1298.56 511.56L1293.84 493.975L1294.39 493.826L1289.67 476.241L1289.12 476.39L1284.4 458.805L1284.96 458.656L1280.24 441.071L1279.68 441.219L1274.96 423.634L1275.52 423.485L1270.8 405.9L1270.25 406.049L1265.53 388.464L1266.08 388.315L1261.36 370.73L1260.81 370.879L1256.09 353.294L1256.65 353.145L1251.93 335.56L1251.37 335.708L1246.65 318.123L1247.21 317.974L1242.49 300.389L1241.93 300.538L1237.22 282.953L1237.77 282.804L1233.05 265.219L1232.5 265.368L1227.78 247.783L1228.33 247.634L1223.62 230.049L1223.06 230.198L1218.34 212.612L1218.9 212.463L1214.18 194.878L1213.62 195.027L1208.9 177.442L1209.46 177.293L1204.74 159.708L1204.19 159.857L1199.47 142.272L1200.02 142.123L1195.3 124.538L1194.75 124.687L1190.03 107.101L1190.59 106.953L1185.87 89.3674L1185.31 89.5163L1183.07 81.1495H1174.54V80.5748H1156.61V81.1495H1138.68V80.5748H1120.75V81.1495H1102.82V80.5748H1084.89V81.1495H1066.96V80.5748H1049.03V81.1495H1040.82L1042.98 89.2193L1042.42 89.3679L1047.13 106.953L1047.68 106.804L1052.39 124.39L1051.84 124.538L1056.54 142.123L1057.1 141.975L1061.8 159.56L1061.25 159.708L1065.96 177.294L1066.51 177.145L1071.22 194.73L1070.66 194.879L1075.37 212.464L1075.93 212.315L1080.63 229.9L1080.08 230.049L1084.78 247.634L1085.34 247.485L1090.05 265.071L1089.49 265.219L1094.2 282.804L1094.75 282.656L1099.46 300.241L1098.9 300.389L1103.61 317.975L1104.17 317.826L1108.87 335.411L1108.32 335.56L1113.02 353.145L1113.58 352.996L1118.29 370.581L1117.73 370.73L1122.44 388.315L1122.99 388.167L1127.7 405.752L1127.15 405.9L1131.85 423.485L1132.41 423.337L1137.11 440.922L1136.56 441.07L1141.27 458.656L1141.82 458.507L1146.53 476.092L1145.97 476.241L1150.68 493.826L1151.24 493.677L1155.94 511.262L1155.39 511.411L1160.09 528.996L1160.65 528.848L1165.36 546.433L1164.8 546.581L1169.51 564.167L1170.06 564.018L1174.77 581.603L1174.21 581.752L1178.92 599.337L1179.48 599.188L1184.18 616.773L1183.63 616.922L1188.34 634.507L1188.89 634.359L1193.6 651.944L1193.04 652.092L1197.75 669.677L1198.3 669.529L1203.01 687.114L1202.46 687.263L1207.16 704.848L1207.72 704.699L1212.42 722.284L1211.87 722.433L1216.58 740.018L1217.13 739.87L1221.84 757.455L1221.28 757.603L1225.99 775.188L1226.55 775.04L1231.25 792.625L1230.7 792.774L1235.4 810.359L1235.96 810.21L1240.67 827.795L1240.11 827.944L1244.82 845.529L1245.37 845.38L1250.08 862.966L1249.52 863.114L1254.23 880.699L1254.79 880.551L1259.49 898.136L1258.94 898.285L1263.65 915.87L1264.2 915.721L1268.91 933.306L1268.35 933.455L1273.06 951.04L1273.61 950.891L1278.32 968.477L1277.77 968.625Z" fill="#17CAC6" stroke="#2D2DF1" stroke-width="1.14934" stroke-dasharray="18.43 18.43"/>
<path opacity="0.5" d="M1289.66 478.373L1244.83 310.892H1387.28L1289.66 478.373Z" fill="#17CAC6" stroke="#2D2DF1" stroke-width="1.14934" stroke-dasharray="24.32 24.32"/>
</g>
<rect x="1428.3" y="994.426" width="911.719" height="909.85" transform="rotate(180 1428.3 994.426)" stroke="#2D2DF1" stroke-width="1.1517" stroke-dasharray="18.43 18.43"/>
<g opacity="0.1">
<path d="M276 12.0001L276 1092" stroke="#2D2DF1"/>
<path d="M300 12.0001L300 1092" stroke="#2D2DF1"/>
<path d="M324 12.0001L324 1092" stroke="#2D2DF1"/>
<path d="M348 12.0001L348 1092" stroke="#2D2DF1"/>
<path d="M372 12.0001L372 1092" stroke="#2D2DF1"/>
<path d="M396 12.0001L396 1092" stroke="#2D2DF1"/>
<path d="M420 12.0001L420 1092" stroke="#2D2DF1"/>
<path d="M444 12.0001L444 1092" stroke="#2D2DF1"/>
<path d="M468 12.0001L468 1092" stroke="#2D2DF1"/>
<path d="M492 12.0001L492.001 1092" stroke="#2D2DF1"/>
<path d="M516 12.0001L516.001 1092" stroke="#2D2DF1"/>
<path d="M540 12.0001L540.001 1092" stroke="#2D2DF1"/>
<path d="M564.001 12.0001L564.001 1092" stroke="#2D2DF1"/>
<path d="M588.001 12.0001L588.001 1092" stroke="#2D2DF1"/>
<path d="M612.001 12.0001L612.001 1092" stroke="#2D2DF1"/>
<path d="M636.001 12.0001L636.001 1092" stroke="#2D2DF1"/>
<path d="M660.001 12.0001L660.001 1092" stroke="#2D2DF1"/>
<path d="M684.001 12.0001L684.001 1092" stroke="#2D2DF1"/>
<path d="M708.001 12.0001L708.001 1092" stroke="#2D2DF1"/>
<path d="M732.001 12.0001L732.001 1092" stroke="#2D2DF1"/>
<path d="M756.001 12.0001L756.001 1092" stroke="#2D2DF1"/>
<path d="M780.001 12.0001L780.001 1092" stroke="#2D2DF1"/>
<path d="M804.001 12.0001L804.001 1092" stroke="#2D2DF1"/>
<path d="M828.001 12.0001L828.001 1092" stroke="#2D2DF1"/>
<path d="M852.001 12.0001L852.001 1092" stroke="#2D2DF1"/>
<path d="M876.001 12.0001L876.001 1092" stroke="#2D2DF1"/>
<path d="M900.001 12.0001L900.002 1092" stroke="#2D2DF1"/>
<path d="M924.001 12.0001L924.002 1092" stroke="#2D2DF1"/>
<path d="M948.001 12.0001L948.002 1092" stroke="#2D2DF1"/>
<path d="M972.002 12.0001L972.002 1092" stroke="#2D2DF1"/>
<path d="M996.002 12.0001L996.002 1092" stroke="#2D2DF1"/>
<path d="M1020 12.0001L1020 1092" stroke="#2D2DF1"/>
<path d="M1044 12.0001L1044 1092" stroke="#2D2DF1"/>
<path d="M1068 12.0001L1068 1092" stroke="#2D2DF1"/>
<path d="M1092 12.0001L1092 1092" stroke="#2D2DF1"/>
<path d="M1116 12.0001L1116 1092" stroke="#2D2DF1"/>
<path d="M1140 12.0001L1140 1092" stroke="#2D2DF1"/>
<path d="M1164 12.0001L1164 1092" stroke="#2D2DF1"/>
<path d="M1188 12.0001L1188 1092" stroke="#2D2DF1"/>
<path d="M1212 12.0001L1212 1092" stroke="#2D2DF1"/>
<path d="M1236 12.0001L1236 1092" stroke="#2D2DF1"/>
<path d="M1260 12.0001L1260 1092" stroke="#2D2DF1"/>
<path d="M1284 12.0001L1284 1092" stroke="#2D2DF1"/>
<path d="M1308 12.0001L1308 1092" stroke="#2D2DF1"/>
<path d="M1332 12.0001L1332 1092" stroke="#2D2DF1"/>
<path d="M1356 12.0001L1356 1092" stroke="#2D2DF1"/>
<path d="M1380 12.0001L1380 1092" stroke="#2D2DF1"/>
<path d="M1404 12.0001L1404 1092" stroke="#2D2DF1"/>
<path d="M1428 12.0001L1428 1092" stroke="#2D2DF1"/>
<path d="M1452 12.0001L1452 1092" stroke="#2D2DF1"/>
<path d="M1476 12.0001L1476 1092" stroke="#2D2DF1"/>
<path d="M1500 12.0001L1500 1092" stroke="#2D2DF1"/>
<path d="M1524 12.0001L1524 1092" stroke="#2D2DF1"/>
<path d="M1548 12.0001L1548 1092" stroke="#2D2DF1"/>
<path d="M1572 12.0001L1572 1092" stroke="#2D2DF1"/>
<path d="M1596 12.0001L1596 1092" stroke="#2D2DF1"/>
<path d="M1620 12.0001L1620 1092" stroke="#2D2DF1"/>
<path d="M1644 12.0001L1644 1092" stroke="#2D2DF1"/>
<path d="M1656 12.0001L275 12.0001" stroke="#2D2DF1"/>
<path d="M1656 36.0001L275 36.0001" stroke="#2D2DF1"/>
<path d="M1656 60.0002L275 60.0002" stroke="#2D2DF1"/>
<path d="M1656 84.0002L275 84.0002" stroke="#2D2DF1"/>
<path d="M1656 108L275 108" stroke="#2D2DF1"/>
<path d="M1656 132L275 132" stroke="#2D2DF1"/>
<path d="M1656 156L275 156" stroke="#2D2DF1"/>
<path d="M1656 180L275 180" stroke="#2D2DF1"/>
<path d="M1656 204.001L275 204.001" stroke="#2D2DF1"/>
<path d="M1656 228.001L275 228.001" stroke="#2D2DF1"/>
<path d="M1656 252.001L275 252.001" stroke="#2D2DF1"/>
<path d="M1656 276.001L275 276.001" stroke="#2D2DF1"/>
<path d="M1656 300.001L275 300.001" stroke="#2D2DF1"/>
<path d="M1656 324.001L275 324.001" stroke="#2D2DF1"/>
<path d="M1656 348.001L275 348.001" stroke="#2D2DF1"/>
<path d="M1656 372.001L275 372.001" stroke="#2D2DF1"/>
<path d="M1656 396.001L275 396.001" stroke="#2D2DF1"/>
<path d="M1656 420.001L275 420.001" stroke="#2D2DF1"/>
<path d="M1656 444.001L275 444.001" stroke="#2D2DF1"/>
<path d="M1656 468.001L275 468.001" stroke="#2D2DF1"/>
<path d="M1656 492.001L275 492.001" stroke="#2D2DF1"/>
<path d="M1656 516.001L275 516.001" stroke="#2D2DF1"/>
<path d="M1656 540.001L275 540.001" stroke="#2D2DF1"/>
<path d="M1656 564.001L275 564.001" stroke="#2D2DF1"/>
<path d="M1656 588.001L275 588.001" stroke="#2D2DF1"/>
<path d="M1656 612.002L275 612.002" stroke="#2D2DF1"/>
<path d="M1656 636.002L275 636.002" stroke="#2D2DF1"/>
<path d="M1656 660.002L275 660.002" stroke="#2D2DF1"/>
<path d="M1656 684.002L275 684.002" stroke="#2D2DF1"/>
<path d="M1656 708.002L275 708.002" stroke="#2D2DF1"/>
<path d="M1656 732.002L275 732.002" stroke="#2D2DF1"/>
<path d="M1656 756.002L275 756.002" stroke="#2D2DF1"/>
<path d="M1656 780.002L275 780.002" stroke="#2D2DF1"/>
<path d="M1656 804.002L275 804.002" stroke="#2D2DF1"/>
<path d="M1656 828.002L275 828.002" stroke="#2D2DF1"/>
<path d="M1656 852.002L275 852.002" stroke="#2D2DF1"/>
<path d="M1656 876.002L275 876.002" stroke="#2D2DF1"/>
<path d="M1656 900.002L275 900.002" stroke="#2D2DF1"/>
<path d="M1656 924.002L275 924.002" stroke="#2D2DF1"/>
<path d="M1656 948.002L275 948.002" stroke="#2D2DF1"/>
<path d="M1656 972.002L275 972.002" stroke="#2D2DF1"/>
<path d="M1656 996.003L275 996.003" stroke="#2D2DF1"/>
<path d="M1656 1020L275 1020" stroke="#2D2DF1"/>
<path d="M1656 1044L275 1044" stroke="#2D2DF1"/>
</g>
</g>
<defs>
<clipPath id="clip0_1_217">
<rect width="1368" height="1055" fill="white" transform="translate(276 12)"/>
</clipPath>
<clipPath id="clip1_1_217">
<rect x="1428.87" y="995.002" width="912.871" height="911.002" transform="rotate(180 1428.87 995.002)" fill="white"/>
</clipPath>
</defs>
</svg>
